<svg version="1.1" xmlns="http://www.w3.org/2000/svg" viewBox="0 0 617.4111790028899 885.440049822544" width="617.4111790028899" height="885.440049822544">
  <!-- svg-source:excalidraw -->
  
  <defs>
    <style class="style-fonts">
      @font-face {
        font-family: "Virgil";
        src: url("https://excalidraw.com/Virgil.woff2");
      }
      @font-face {
        font-family: "Cascadia";
        src: url("https://excalidraw.com/Cascadia.woff2");
      }
    </style>
  </defs>
  <rect x="0" y="0" width="617.4111790028899" height="885.440049822544" fill="#ffffff"></rect><g stroke-linecap="round" transform="translate(11.411179002889867 200.94004982254398) rotate(0 298 247.5)"><path d="M32 0 M32 0 C227.94 -0.34, 424.94 -1.18, 564 0 M32 0 C151.31 -1.35, 270.13 -1.43, 564 0 M564 0 C583.54 -0.53, 594.46 10.27, 596 32 M564 0 C583.72 -1.04, 596.91 9.35, 596 32 M596 32 C595.41 148.46, 595.15 264.66, 596 463 M596 32 C595.13 180.81, 594.9 328.77, 596 463 M596 463 C596.38 484.58, 585.15 496.06, 564 495 M596 463 C594.58 485.88, 586.91 493.15, 564 495 M564 495 C384.8 494.45, 203.45 494.84, 32 495 M564 495 C448.18 495.77, 331.75 496.01, 32 495 M32 495 C9.44 496.73, -0.09 484.09, 0 463 M32 495 C11.35 497.01, 2.14 485.96, 0 463 M0 463 C-2.21 321.75, -2.12 179.13, 0 32 M0 463 C-0.92 327.61, -0.59 191.37, 0 32 M0 32 C0.11 11.28, 12.17 1.92, 32 0 M0 32 C1.37 9.22, 8.45 -0.82, 32 0" stroke="#000000" stroke-width="1" fill="none"></path></g><g stroke-linecap="round" transform="translate(59.41117900288987 503.940049822544) rotate(0 60.5 57)"><path d="M28.5 0 M28.5 0 C49.56 2.02, 70.4 0.72, 92.5 0 M28.5 0 C48.86 -0.17, 69.97 -0.95, 92.5 0 M92.5 0 C110.45 0.6, 122.59 7.54, 121 28.5 M92.5 0 C111.53 -1.58, 119.66 9, 121 28.5 M121 28.5 C123.18 47.48, 120.58 65.59, 121 85.5 M121 28.5 C121.56 46.41, 121.83 63.31, 121 85.5 M121 85.5 C122.16 104.36, 113 115.6, 92.5 114 M121 85.5 C119.82 102.63, 110.96 115.32, 92.5 114 M92.5 114 C75.17 112.73, 59.73 112.43, 28.5 114 M92.5 114 C67.86 113.42, 42.26 112.85, 28.5 114 M28.5 114 C8.88 112.73, -1.64 106.28, 0 85.5 M28.5 114 C8.57 114.09, 1.42 103.75, 0 85.5 M0 85.5 C0.02 69.43, 0.9 49.81, 0 28.5 M0 85.5 C0.35 67.74, 0.16 49.69, 0 28.5 M0 28.5 C-0.24 11.49, 10.36 0.73, 28.5 0 M0 28.5 C-1.64 9.04, 9.25 2.27, 28.5 0" stroke="#000000" stroke-width="1" fill="none"></path></g><g transform="translate(89.41117900288987 520.940049822544) rotate(0 39 39)"><text x="0" y="18" font-family="Virgil, Segoe UI Emoji" font-size="20px" fill="#000000" text-anchor="start" style="white-space: pre;" direction="ltr">GraphQl</text><text x="0" y="44" font-family="Virgil, Segoe UI Emoji" font-size="20px" fill="#000000" text-anchor="start" style="white-space: pre;" direction="ltr">API</text><text x="0" y="70" font-family="Virgil, Segoe UI Emoji" font-size="20px" fill="#000000" text-anchor="start" style="white-space: pre;" direction="ltr">Python</text></g><g transform="translate(47.41117900288987 216.94004982254398) rotate(0 20 13)"><text x="0" y="18" font-family="Virgil, Segoe UI Emoji" font-size="20px" fill="#000000" text-anchor="start" style="white-space: pre;" direction="ltr">K8s</text></g><g stroke-linecap="round" transform="translate(364.41117900288987 231.94004982254398) rotate(0 79 57)"><path d="M28.5 0 M28.5 0 C49.47 -0.34, 71.97 -0.44, 129.5 0 M28.5 0 C67.7 -1.16, 107.8 -0.5, 129.5 0 M129.5 0 C146.55 -0.63, 157.39 7.98, 158 28.5 M129.5 0 C149.22 -0.67, 158.54 7.95, 158 28.5 M158 28.5 C156.75 42.54, 157.04 56.01, 158 85.5 M158 28.5 C158.24 43, 157.59 58.23, 158 85.5 M158 85.5 C158.28 105.59, 146.7 114.42, 129.5 114 M158 85.5 C159.9 106.38, 149.96 115.63, 129.5 114 M129.5 114 C100.62 114.33, 74.34 112.15, 28.5 114 M129.5 114 C89.72 113.53, 49.67 114.47, 28.5 114 M28.5 114 C10.71 115.29, -1.16 104.32, 0 85.5 M28.5 114 C10.85 115.67, 1 102.23, 0 85.5 M0 85.5 C-1.43 71.38, -1.29 58.95, 0 28.5 M0 85.5 C0.04 64.93, -0.35 45.98, 0 28.5 M0 28.5 C1.3 10.66, 7.85 -1.81, 28.5 0 M0 28.5 C1.79 8.34, 11.35 -0.55, 28.5 0" stroke="#000000" stroke-width="1" fill="none"></path></g><g transform="translate(390.91117900288987 249.94004982254398) rotate(0 52.5 39)"><text x="52.5" y="18" font-family="Virgil, Segoe UI Emoji" font-size="20px" fill="#000000" text-anchor="middle" style="white-space: pre;" direction="ltr">FE</text><text x="52.5" y="44" font-family="Virgil, Segoe UI Emoji" font-size="20px" fill="#000000" text-anchor="middle" style="white-space: pre;" direction="ltr">Vue.js</text><text x="52.5" y="70" font-family="Virgil, Segoe UI Emoji" font-size="20px" fill="#000000" text-anchor="middle" style="white-space: pre;" direction="ltr">TypeScript</text></g><g stroke-linecap="round" transform="translate(213.41117900288987 785.940049822544) rotate(0 49.5 14.5)"><path d="M51.2 -0.77 C60.27 -0.82, 72.91 0.26, 80.49 2.26 C88.07 4.27, 94.16 8.28, 96.7 11.26 C99.25 14.25, 99.08 17.49, 95.76 20.18 C92.44 22.87, 84.88 26.05, 76.76 27.42 C68.64 28.79, 56.89 28.51, 47.04 28.4 C37.19 28.28, 25.11 28.49, 17.67 26.74 C10.23 24.99, 4.71 20.88, 2.41 17.9 C0.1 14.91, 0.53 11.45, 3.82 8.84 C7.1 6.23, 13.72 3.8, 22.11 2.22 C30.5 0.64, 48.28 -0.51, 54.14 -0.67 C60 -0.82, 57.22 0.84, 57.25 1.28 M34.4 1.6 C43.24 0.49, 57.88 -1, 66.89 -0.44 C75.9 0.13, 83.15 2.52, 88.48 4.98 C93.82 7.43, 98.58 11.22, 98.9 14.29 C99.22 17.35, 96.39 20.88, 90.39 23.35 C84.38 25.82, 72.12 28.54, 62.87 29.12 C53.61 29.7, 43.89 27.82, 34.84 26.81 C25.79 25.8, 14.55 25.22, 8.57 23.05 C2.58 20.89, -1.43 16.82, -1.08 13.82 C-0.74 10.82, 4.73 7.13, 10.64 5.06 C16.55 2.98, 30.39 1.82, 34.38 1.35 C38.37 0.89, 34.25 2.23, 34.59 2.29" stroke="#000000" stroke-width="1" fill="none"></path></g><g stroke-linecap="round" transform="translate(216.91117900288987 846.440049822544) rotate(0 49.5 14.5)"><path d="M31.42 0.65 C39.93 -0.64, 53.36 -0.65, 62.95 0.16 C72.55 0.96, 83.03 3.1, 88.99 5.5 C94.95 7.9, 98.57 11.78, 98.73 14.56 C98.89 17.35, 95.09 19.85, 89.96 22.2 C84.82 24.54, 76.84 27.5, 67.91 28.63 C58.99 29.76, 45.79 29.86, 36.41 28.96 C27.03 28.05, 17.7 25.6, 11.62 23.2 C5.53 20.8, 0.61 17.43, -0.09 14.55 C-0.8 11.67, 0.99 8.28, 7.37 5.91 C13.75 3.54, 32.1 1.41, 38.18 0.34 C44.26 -0.72, 43.71 -0.57, 43.86 -0.48 M65.87 1.7 C74.91 2.46, 83.96 5.11, 89.44 7.18 C94.91 9.25, 98.95 11.39, 98.74 14.13 C98.52 16.88, 94.14 21.06, 88.14 23.64 C82.14 26.22, 71.97 28.65, 62.72 29.6 C53.48 30.55, 41.48 30.39, 32.68 29.36 C23.89 28.33, 15.47 26.18, 9.97 23.42 C4.47 20.66, -0.13 15.67, -0.32 12.79 C-0.52 9.92, 2.95 8.13, 8.8 6.18 C14.64 4.24, 25.52 2.21, 34.75 1.12 C43.97 0.03, 59.01 -0.15, 64.15 -0.35 C69.29 -0.55, 65.42 -0.48, 65.59 -0.07" stroke="#000000" stroke-width="1" fill="none"></path></g><g stroke-linecap="round"><g transform="translate(214.41117900288987 797.940049822544) rotate(0 1.384958313032996 34.39057148613034)"><path d="M-0.73 0.9 C-0.29 12.07, 2.72 56.09, 3.5 66.94 M1.09 0.33 C1.34 11.7, 2.38 57.37, 2.81 68.45" stroke="#000000" stroke-width="1" fill="none"></path></g></g><mask></mask><g stroke-linecap="round"><g transform="translate(312.41117900288987 801.940049822544) rotate(0 1.6258437717798984 30.943518192674958)"><path d="M1.09 -0.37 C1.61 9.86, 2.82 51.93, 3.06 62.31 M0.2 -1.61 C0.57 8.68, 1.92 52.78, 2.14 63.49" stroke="#000000" stroke-width="1" fill="none"></path></g></g><mask></mask><g transform="translate(344.41117900288987 806.940049822544) rotate(0 58 13)"><text x="0" y="18" font-family="Virgil, Segoe UI Emoji" font-size="20px" fill="#000000" text-anchor="start" style="white-space: pre;" direction="ltr">PostgreSQL</text></g><g stroke-linecap="round"><g transform="translate(366.41117900288987 329.940049822544) rotate(0 -118.25207177778702 84.54321444084869)"><path d="M-0.66 -0.4 C-40.19 28.04, -197.64 140.93, -236.84 169.47 M1.19 -1.65 C-38.51 27.05, -198.17 142.29, -237.7 170.74" stroke="#000000" stroke-width="1" fill="none"></path></g><g transform="translate(366.41117900288987 329.940049822544) rotate(0 -118.25207177778702 84.54321444084869)"><path d="M-221.49 146.2 C-227.5 155.99, -230.69 163.22, -239.45 169.44 M-221.82 145.92 C-226.74 155.29, -233.55 163.9, -237.91 169.91" stroke="#000000" stroke-width="1" fill="none"></path></g><g transform="translate(366.41117900288987 329.940049822544) rotate(0 -118.25207177778702 84.54321444084869)"><path d="M-209.49 162.85 C-219.3 167.09, -226.45 168.82, -239.45 169.44 M-209.82 162.56 C-219.09 165.9, -230.3 168.4, -237.91 169.91" stroke="#000000" stroke-width="1" fill="none"></path></g></g><mask></mask><g stroke-linecap="round"><g transform="translate(155.41117900288987 618.940049822544) rotate(0 43.0101037593941 73.08677686083706)"><path d="M-1.16 -0.01 C-1.05 0.11, -15.49 -26.01, -0.09 0.4 C15.3 26.82, 75.82 132.11, 91.18 158.47 M0.43 -1.07 C0.44 -1.28, -16.63 -28.27, -1.09 -1.51 C14.44 25.25, 78.07 132.68, 93.64 159.51" stroke="#000000" stroke-width="1" fill="none"></path></g><g transform="translate(155.41117900288987 618.940049822544) rotate(0 43.0101037593941 73.08677686083706)"><path d="M70.5 140.24 C76.64 143.8, 80.58 149.79, 92.94 161.01 M71.15 140.6 C78.09 145.79, 84.77 152.25, 92.69 158.66" stroke="#000000" stroke-width="1" fill="none"></path></g><g transform="translate(155.41117900288987 618.940049822544) rotate(0 43.0101037593941 73.08677686083706)"><path d="M88.2 129.85 C90.1 135.71, 89.84 144.17, 92.94 161.01 M88.85 130.21 C90.43 138.6, 91.83 148.15, 92.69 158.66" stroke="#000000" stroke-width="1" fill="none"></path></g></g><mask></mask><g transform="translate(10 10) rotate(0 164.5 31)"><text x="0" y="22" font-family="Virgil, Segoe UI Emoji" font-size="23.921780354661326px" fill="#000000" text-anchor="start" style="white-space: pre;" direction="ltr">Overcomplicated TODO List</text><text x="0" y="53" font-family="Virgil, Segoe UI Emoji" font-size="23.921780354661326px" fill="#000000" text-anchor="start" style="white-space: pre;" direction="ltr"></text></g><g transform="translate(19.063670152995087 63.11610337972169) rotate(0 87 10.5)"><text x="0" y="16" font-family="Helvetica, Segoe UI Emoji" font-size="20px" fill="#000000" text-anchor="start" style="white-space: pre;" direction="ltr">Kubernetes version</text></g></svg>