<svg version="1.1" xmlns="http://www.w3.org/2000/svg" viewBox="0 0 355.54226206970645 478.2172129308507" width="355.54226206970645" height="478.2172129308507">
  <!-- svg-source:excalidraw -->
  
  <defs>
    <style class="style-fonts">
      @font-face {
        font-family: "Virgil";
        src: url("https://excalidraw.com/Virgil.woff2");
      }
      @font-face {
        font-family: "Cascadia";
        src: url("https://excalidraw.com/Cascadia.woff2");
      }
    </style>
  </defs>
  <rect x="0" y="0" width="355.54226206970645" height="478.2172129308507" fill="#ffffff"></rect><g stroke-linecap="round" transform="translate(243.04226206970645 378.7172129308507) rotate(0 49.5 14.5)"><path d="M51.2 -0.77 C60.27 -0.82, 72.91 0.26, 80.49 2.26 C88.07 4.27, 94.16 8.28, 96.7 11.26 C99.25 14.25, 99.08 17.49, 95.76 20.18 C92.44 22.87, 84.88 26.05, 76.76 27.42 C68.64 28.79, 56.89 28.51, 47.04 28.4 C37.19 28.28, 25.11 28.49, 17.67 26.74 C10.23 24.99, 4.71 20.88, 2.41 17.9 C0.1 14.91, 0.53 11.45, 3.82 8.84 C7.1 6.23, 13.72 3.8, 22.11 2.22 C30.5 0.64, 48.28 -0.51, 54.14 -0.67 C60 -0.82, 57.22 0.84, 57.25 1.28 M34.4 1.6 C43.24 0.49, 57.88 -1, 66.89 -0.44 C75.9 0.13, 83.15 2.52, 88.48 4.98 C93.82 7.43, 98.58 11.22, 98.9 14.29 C99.22 17.35, 96.39 20.88, 90.39 23.35 C84.38 25.82, 72.12 28.54, 62.87 29.12 C53.61 29.7, 43.89 27.82, 34.84 26.81 C25.79 25.8, 14.55 25.22, 8.57 23.05 C2.58 20.89, -1.43 16.82, -1.08 13.82 C-0.74 10.82, 4.73 7.13, 10.64 5.06 C16.55 2.98, 30.39 1.82, 34.38 1.35 C38.37 0.89, 34.25 2.23, 34.59 2.29" stroke="#000000" stroke-width="1" fill="none"></path></g><g stroke-linecap="round" transform="translate(246.54226206970645 439.2172129308507) rotate(0 49.5 14.5)"><path d="M31.42 0.65 C39.93 -0.64, 53.36 -0.65, 62.95 0.16 C72.55 0.96, 83.03 3.1, 88.99 5.5 C94.95 7.9, 98.57 11.78, 98.73 14.56 C98.89 17.35, 95.09 19.85, 89.96 22.2 C84.82 24.54, 76.84 27.5, 67.91 28.63 C58.99 29.76, 45.79 29.86, 36.41 28.96 C27.03 28.05, 17.7 25.6, 11.62 23.2 C5.53 20.8, 0.61 17.43, -0.09 14.55 C-0.8 11.67, 0.99 8.28, 7.37 5.91 C13.75 3.54, 32.1 1.41, 38.18 0.34 C44.26 -0.72, 43.71 -0.57, 43.86 -0.48 M65.87 1.7 C74.91 2.46, 83.96 5.11, 89.44 7.18 C94.91 9.25, 98.95 11.39, 98.74 14.13 C98.52 16.88, 94.14 21.06, 88.14 23.64 C82.14 26.22, 71.97 28.65, 62.72 29.6 C53.48 30.55, 41.48 30.39, 32.68 29.36 C23.89 28.33, 15.47 26.18, 9.97 23.42 C4.47 20.66, -0.13 15.67, -0.32 12.79 C-0.52 9.92, 2.95 8.13, 8.8 6.18 C14.64 4.24, 25.52 2.21, 34.75 1.12 C43.97 0.03, 59.01 -0.15, 64.15 -0.35 C69.29 -0.55, 65.42 -0.48, 65.59 -0.07" stroke="#000000" stroke-width="1" fill="none"></path></g><g stroke-linecap="round"><g transform="translate(244.04226206970645 390.7172129308507) rotate(0 1.384958313032996 34.39057148613034)"><path d="M-0.73 0.9 C-0.29 12.07, 2.72 56.09, 3.5 66.94 M1.09 0.33 C1.34 11.7, 2.38 57.37, 2.81 68.45" stroke="#000000" stroke-width="1" fill="none"></path></g></g><mask></mask><g stroke-linecap="round"><g transform="translate(342.04226206970645 394.7172129308507) rotate(0 1.6258437717798984 30.943518192674958)"><path d="M1.09 -0.37 C1.61 9.86, 2.82 51.93, 3.06 62.31 M0.2 -1.61 C0.57 8.68, 1.92 52.78, 2.14 63.49" stroke="#000000" stroke-width="1" fill="none"></path></g></g><mask></mask><g transform="translate(10 10) rotate(0 164.5 31)"><text x="0" y="22" font-family="Virgil, Segoe UI Emoji" font-size="23.921780354661326px" fill="#000000" text-anchor="start" style="white-space: pre;" direction="ltr">Overcomplicated TODO List</text><text x="0" y="53" font-family="Virgil, Segoe UI Emoji" font-size="23.921780354661326px" fill="#000000" text-anchor="start" style="white-space: pre;" direction="ltr"></text></g><g transform="translate(19.063670152995087 63.11610337972169) rotate(0 139 10.5)"><text x="0" y="16" font-family="Helvetica, Segoe UI Emoji" font-size="20px" fill="#000000" text-anchor="start" style="white-space: pre;" direction="ltr">Cloud functions &amp; CDN version</text></g><g stroke-linecap="round" transform="translate(23.64044429077694 234.4250842769472) rotate(0 88.5 39)"><path d="M19.5 0 L157.5 0 L166.03 1.22 L172.13 4.88 L174.26 7.62 L176.7 14.93 L177 58.5 L175.78 67.03 L174.26 70.38 L169.38 75.26 L166.03 76.78 L157.5 78 L19.5 78 L10.97 76.78 L4.88 73.13 L2.74 70.38 L0.3 63.07 L0.3 14.93 L1.22 10.97 L4.88 4.88 L10.97 1.22 L19.5 0" stroke="none" stroke-width="0" fill="#FFF"></path><path d="M19.5 0 M19.5 0 C52.36 0, 85.22 0, 157.5 0 M19.5 0 C56.12 0, 92.74 0, 157.5 0 M157.5 0 C170.5 0, 177 6.5, 177 19.5 M157.5 0 C170.5 0, 177 6.5, 177 19.5 M177 19.5 C177 32.32, 177 45.14, 177 58.5 M177 19.5 C177 28.61, 177 37.72, 177 58.5 M177 58.5 C177 71.5, 170.5 78, 157.5 78 M177 58.5 C177 71.5, 170.5 78, 157.5 78 M157.5 78 C113.97 78, 70.44 78, 19.5 78 M157.5 78 C115.5 78, 73.49 78, 19.5 78 M19.5 78 C6.5 78, 0 71.5, 0 58.5 M19.5 78 C6.5 78, 0 71.5, 0 58.5 M0 58.5 C0 46.71, 0 34.91, 0 19.5 M0 58.5 C0 48.78, 0 39.06, 0 19.5 M0 19.5 C0 6.5, 6.5 0, 19.5 0 M0 19.5 C0 6.5, 6.5 0, 19.5 0" stroke="#4285f4" stroke-width="2" fill="none"></path></g><g transform="translate(83.64044429077694 249.4250842769472) rotate(0 37 6.5)"><text x="0" y="10" font-family="Helvetica, Segoe UI Emoji" font-size="12px" fill="#B5B9BF" text-anchor="start" style="white-space: pre;" direction="ltr">GraphQL API</text></g><g transform="translate(83.64044429077694 265.4250842769472) rotate(0 45 8)"><text x="0" y="12" font-family="Helvetica, Segoe UI Emoji" font-size="12px" fill="#000000" text-anchor="start" style="white-space: pre;" direction="ltr">Cloud Functions</text></g><g transform="translate(83.64044429077694 281.4250842769472) rotate(0 19.5 6.5)"><text x="0" y="10" font-family="Helvetica, Segoe UI Emoji" font-size="12px" fill="#B5B9BF" text-anchor="start" style="white-space: pre;" direction="ltr">Python</text></g><g stroke-linecap="round"><g transform="translate(40.6235990644891 278.87608067587297) rotate(0 2.320827007293701 -5.507274627685547)" fill-rule="evenodd"><path d="M0 0 L4.64 3.77 L4.64 -14.79 L0 -11.03 L0 0" stroke="none" stroke-width="0" fill="#669df6" fill-rule="evenodd"></path><path d="M0 0 C1.61 1.31, 3.23 2.62, 4.64 3.77 M0 0 C1.53 1.25, 3.07 2.49, 4.64 3.77 M4.64 3.77 C4.64 -2.84, 4.64 -9.44, 4.64 -14.79 M4.64 3.77 C4.64 -1.62, 4.64 -7, 4.64 -14.79 M4.64 -14.79 C3.06 -13.51, 1.49 -12.23, 0 -11.03 M4.64 -14.79 C3.67 -14, 2.7 -13.22, 0 -11.03 M0 -11.03 C0 -8.62, 0 -6.22, 0 0 M0 -11.03 C0 -8.68, 0 -6.33, 0 0 M0 0 C0 0, 0 0, 0 0 M0 0 C0 0, 0 0, 0 0" stroke="#00000000" stroke-width="1" fill="none"></path></g></g><mask></mask><g stroke-linecap="round"><g transform="translate(40.6235990644891 270.27347771719377) rotate(0 2.320827007293701 -3.0926499366760254)" fill-rule="evenodd"><path d="M0 0 L4.64 -3.09 L4.64 -6.19 L0 0" stroke="none" stroke-width="0" fill="#4285f4" fill-rule="evenodd"></path><path d="M0 0 C1.6 -1.07, 3.21 -2.14, 4.64 -3.09 M0 0 C1.55 -1.03, 3.09 -2.06, 4.64 -3.09 M4.64 -3.09 C4.64 -4.26, 4.64 -5.43, 4.64 -6.19 M4.64 -3.09 C4.64 -4.24, 4.64 -5.38, 4.64 -6.19 M4.64 -6.19 C3.06 -4.07, 1.47 -1.96, 0 0 M4.64 -6.19 C3.02 -4.02, 1.4 -1.86, 0 0 M0 0 C0 0, 0 0, 0 0 M0 0 C0 0, 0 0, 0 0" stroke="#00000000" stroke-width="1" fill="none"></path></g></g><mask></mask><g stroke-linecap="round"><g transform="translate(45.2652530790765 282.6494342525331) rotate(0 -2.320827007293701 -3.0953292846679688)" fill-rule="evenodd"><path d="M0 0 L0 -3.09 L-4.64 -6.19 L0 0" stroke="none" stroke-width="0" fill="#4285f4" fill-rule="evenodd"></path><path d="M0 0 C0 -0.69, 0 -1.37, 0 -3.09 M0 0 C0 -0.7, 0 -1.41, 0 -3.09 M0 -3.09 C-1.42 -4.04, -2.85 -4.99, -4.64 -6.19 M0 -3.09 C-0.94 -3.72, -1.87 -4.34, -4.64 -6.19 M-4.64 -6.19 C-3.42 -4.57, -2.21 -2.94, 0 0 M-4.64 -6.19 C-3.26 -4.35, -1.88 -2.51, 0 0 M0 0 C0 0, 0 0, 0 0 M0 0 C0 0, 0 0, 0 0" stroke="#00000000" stroke-width="1" fill="none"></path></g></g><mask></mask><g stroke-linecap="round"><g transform="translate(49.90154792084286 285.742083712372) rotate(0 -4.63897442817688 -3.0953292846679688)" fill-rule="evenodd"><path d="M0 0 L-9.28 -9.28 L-9.28 -3.09 L-3.09 3.09 L0 0" stroke="none" stroke-width="0" fill="#aecbfa" fill-rule="evenodd"></path><path d="M0 0 C-2.93 -2.93, -5.86 -5.86, -9.28 -9.28 M0 0 C-2.59 -2.59, -5.18 -5.18, -9.28 -9.28 M-9.28 -9.28 C-9.28 -7.55, -9.28 -5.82, -9.28 -3.09 M-9.28 -9.28 C-9.28 -7.33, -9.28 -5.38, -9.28 -3.09 M-9.28 -3.09 C-7.64 -1.45, -6 0.19, -3.09 3.09 M-9.28 -3.09 C-7.86 -1.67, -6.44 -0.25, -3.09 3.09 M-3.09 3.09 C-2.37 2.37, -1.65 1.65, 0 0 M-3.09 3.09 C-1.97 1.97, -0.85 0.85, 0 0 M0 0 C0 0, 0 0, 0 0 M0 0 C0 0, 0 0, 0 0" stroke="#00000000" stroke-width="1" fill="none"></path></g></g><mask></mask><g stroke-linecap="round"><g transform="translate(46.792818558355066 257.9189588268129) rotate(0 -1.5356056690216064 6.17725944519043)" fill-rule="evenodd"><path d="M0 0 L-6.17 6.17 L-6.15 12.35 L3.1 3.09 L0 0" stroke="none" stroke-width="0" fill="#aecbfa" fill-rule="evenodd"></path><path d="M0 0 C-1.31 1.31, -2.62 2.62, -6.17 6.17 M0 0 C-1.69 1.69, -3.37 3.37, -6.17 6.17 M-6.17 6.17 C-6.17 7.55, -6.16 8.93, -6.15 12.35 M-6.17 6.17 C-6.16 8.28, -6.16 10.38, -6.15 12.35 M-6.15 12.35 C-4.16 10.36, -2.16 8.36, 3.1 3.09 M-6.15 12.35 C-2.96 9.16, 0.23 5.96, 3.1 3.09 M3.1 3.09 C2.39 2.39, 1.68 1.68, 0 0 M3.1 3.09 C1.89 1.88, 0.68 0.68, 0 0 M0 0 C0 0, 0 0, 0 0 M0 0 C0 0, 0 0, 0 0" stroke="#00000000" stroke-width="1" fill="none"></path></g></g><mask></mask><g stroke-linecap="round"><g transform="translate(71.55545283569882 267.8776113231508) rotate(0 -2.318147659301758 5.507274150848389)" fill-rule="evenodd"><path d="M0 0 L-4.64 -3.77 L-4.64 14.79 L0 11.04 L0 0" stroke="none" stroke-width="0" fill="#669df6" fill-rule="evenodd"></path><path d="M0 0 C-1.08 -0.88, -2.16 -1.76, -4.64 -3.77 M0 0 C-1.25 -1.01, -2.49 -2.03, -4.64 -3.77 M-4.64 -3.77 C-4.64 0.06, -4.64 3.9, -4.64 14.79 M-4.64 -3.77 C-4.64 0.85, -4.64 5.47, -4.64 14.79 M-4.64 14.79 C-3.65 13.99, -2.66 13.19, 0 11.04 M-4.64 14.79 C-2.89 13.37, -1.13 11.96, 0 11.04 M0 11.04 C0 8.48, 0 5.92, 0 0 M0 11.04 C0 7.97, 0 4.91, 0 0 M0 0 C0 0, 0 0, 0 0 M0 0 C0 0, 0 0, 0 0" stroke="#00000000" stroke-width="1" fill="none"></path></g></g><mask></mask><g stroke-linecap="round"><g transform="translate(71.55545283569882 276.4748546321718) rotate(0 -2.318147659301758 3.0953292846679688)" fill-rule="evenodd"><path d="M0 0 L-4.64 3.09 L-4.64 6.19 L0 0" stroke="none" stroke-width="0" fill="#4285f4" fill-rule="evenodd"></path><path d="M0 0 C-0.97 0.65, -1.94 1.29, -4.64 3.09 M0 0 C-1.06 0.71, -2.13 1.42, -4.64 3.09 M-4.64 3.09 C-4.64 3.73, -4.64 4.36, -4.64 6.19 M-4.64 3.09 C-4.64 3.93, -4.64 4.76, -4.64 6.19 M-4.64 6.19 C-3.65 4.88, -2.67 3.57, 0 0 M-4.64 6.19 C-2.95 3.93, -1.25 1.68, 0 0 M0 0 C0 0, 0 0, 0 0 M0 0 C0 0, 0 0, 0 0" stroke="#00000000" stroke-width="1" fill="none"></path></g></g><mask></mask><g stroke-linecap="round"><g transform="translate(66.9191575170953 264.10425774649065) rotate(0 2.318147659301758 3.092649459838867)" fill-rule="evenodd"><path d="M0 0 L0 3.09 L4.64 6.19 L0 0" stroke="none" stroke-width="0" fill="#4285f4" fill-rule="evenodd"></path><path d="M0 0 C0 0.92, 0 1.84, 0 3.09 M0 0 C0 0.63, 0 1.26, 0 3.09 M0 3.09 C1.66 4.2, 3.32 5.3, 4.64 6.19 M0 3.09 C1.1 3.83, 2.21 4.57, 4.64 6.19 M4.64 6.19 C3.11 4.15, 1.58 2.11, 0 0 M4.64 6.19 C3.11 4.15, 1.59 2.12, 0 0 M0 0 C0 0, 0 0, 0 0 M0 0 C0 0, 0 0, 0 0" stroke="#00000000" stroke-width="1" fill="none"></path></g></g><mask></mask><g stroke-linecap="round"><g transform="translate(62.277504456182214 261.0116082866518) rotate(0 4.638974189758301 3.092649459838867)" fill-rule="evenodd"><path d="M0 0 L9.28 9.28 L9.28 3.09 L3.09 -3.09 L0 0" stroke="none" stroke-width="0" fill="#aecbfa" fill-rule="evenodd"></path><path d="M0 0 C2.01 2.01, 4.03 4.03, 9.28 9.28 M0 0 C3.49 3.49, 6.98 6.98, 9.28 9.28 M9.28 9.28 C9.28 6.95, 9.28 4.63, 9.28 3.09 M9.28 9.28 C9.28 7.98, 9.28 6.67, 9.28 3.09 M9.28 3.09 C7.44 1.26, 5.61 -0.58, 3.09 -3.09 M9.28 3.09 C7.63 1.44, 5.97 -0.21, 3.09 -3.09 M3.09 -3.09 C2.24 -2.24, 1.38 -1.38, 0 0 M3.09 -3.09 C2.2 -2.2, 1.3 -1.3, 0 0 M0 0 C0 0, 0 0, 0 0 M0 0 C0 0, 0 0, 0 0" stroke="#00000000" stroke-width="1" fill="none"></path></g></g><mask></mask><g stroke-linecap="round"><g transform="translate(65.38623286499569 288.83473317221086) rotate(0 1.538285255432129 -6.179939270019531)" fill-rule="evenodd"><path d="M0 0 L6.17 -6.17 L6.15 -12.36 L-3.09 -3.09 L0 0" stroke="none" stroke-width="0" fill="#aecbfa" fill-rule="evenodd"></path><path d="M0 0 C1.34 -1.34, 2.69 -2.69, 6.17 -6.17 M0 0 C2.26 -2.26, 4.52 -4.52, 6.17 -6.17 M6.17 -6.17 C6.16 -7.9, 6.16 -9.63, 6.15 -12.36 M6.17 -6.17 C6.17 -7.67, 6.16 -9.16, 6.15 -12.36 M6.15 -12.36 C3.88 -10.08, 1.61 -7.8, -3.09 -3.09 M6.15 -12.36 C3.2 -9.4, 0.24 -6.43, -3.09 -3.09 M-3.09 -3.09 C-2.23 -2.23, -1.37 -1.37, 0 0 M-3.09 -3.09 C-2.18 -2.18, -1.28 -1.28, 0 0 M0 0 C0 0, 0 0, 0 0 M0 0 C0 0, 0 0, 0 0" stroke="#00000000" stroke-width="1" fill="none"></path></g></g><mask></mask><g stroke-linecap="round" transform="translate(48.35254241242001 271.8171216686098) rotate(0 1.5490046739578247 1.5490046739578247)"><path d="M3.1 1.55 C3.1 1.64, 3.09 1.73, 3.07 1.82 C3.06 1.91, 3.04 1.99, 3 2.08 C2.97 2.16, 2.94 2.25, 2.89 2.32 C2.85 2.4, 2.79 2.48, 2.74 2.54 C2.68 2.61, 2.61 2.68, 2.54 2.74 C2.48 2.79, 2.4 2.85, 2.32 2.89 C2.25 2.94, 2.16 2.97, 2.08 3 C1.99 3.04, 1.91 3.06, 1.82 3.07 C1.73 3.09, 1.64 3.1, 1.55 3.1 C1.46 3.1, 1.37 3.09, 1.28 3.07 C1.19 3.06, 1.1 3.04, 1.02 3 C0.93 2.97, 0.85 2.94, 0.77 2.89 C0.7 2.85, 0.62 2.79, 0.55 2.74 C0.48 2.68, 0.42 2.61, 0.36 2.54 C0.3 2.48, 0.25 2.4, 0.21 2.32 C0.16 2.25, 0.12 2.16, 0.09 2.08 C0.06 1.99, 0.04 1.91, 0.02 1.82 C0.01 1.73, 0 1.64, 0 1.55 C0 1.46, 0.01 1.37, 0.02 1.28 C0.04 1.19, 0.06 1.1, 0.09 1.02 C0.12 0.93, 0.16 0.85, 0.21 0.77 C0.25 0.7, 0.3 0.62, 0.36 0.55 C0.42 0.48, 0.48 0.42, 0.55 0.36 C0.62 0.3, 0.7 0.25, 0.77 0.21 C0.85 0.16, 0.93 0.12, 1.02 0.09 C1.1 0.06, 1.19 0.04, 1.28 0.02 C1.37 0.01, 1.46 0, 1.55 0 C1.64 0, 1.73 0.01, 1.82 0.02 C1.91 0.04, 1.99 0.06, 2.08 0.09 C2.16 0.12, 2.25 0.16, 2.32 0.21 C2.4 0.25, 2.48 0.3, 2.54 0.36 C2.61 0.42, 2.68 0.48, 2.74 0.55 C2.79 0.62, 2.85 0.7, 2.89 0.77 C2.94 0.85, 2.97 0.93, 3 1.02 C3.04 1.1, 3.06 1.19, 3.07 1.28 C3.09 1.37, 3.09 1.5, 3.1 1.55 C3.1 1.59, 3.1 1.5, 3.1 1.55" stroke="none" stroke-width="0" fill="#aecbfa"></path><path d="M3.1 1.55 C3.1 1.64, 3.09 1.73, 3.07 1.82 C3.06 1.91, 3.04 1.99, 3 2.08 C2.97 2.16, 2.94 2.25, 2.89 2.32 C2.85 2.4, 2.79 2.48, 2.74 2.54 C2.68 2.61, 2.61 2.68, 2.54 2.74 C2.48 2.79, 2.4 2.85, 2.32 2.89 C2.25 2.94, 2.16 2.97, 2.08 3 C1.99 3.04, 1.91 3.06, 1.82 3.07 C1.73 3.09, 1.64 3.1, 1.55 3.1 C1.46 3.1, 1.37 3.09, 1.28 3.07 C1.19 3.06, 1.1 3.04, 1.02 3 C0.93 2.97, 0.85 2.94, 0.77 2.89 C0.7 2.85, 0.62 2.79, 0.55 2.74 C0.48 2.68, 0.42 2.61, 0.36 2.54 C0.3 2.48, 0.25 2.4, 0.21 2.32 C0.16 2.25, 0.12 2.16, 0.09 2.08 C0.06 1.99, 0.04 1.91, 0.02 1.82 C0.01 1.73, 0 1.64, 0 1.55 C0 1.46, 0.01 1.37, 0.02 1.28 C0.04 1.19, 0.06 1.1, 0.09 1.02 C0.12 0.93, 0.16 0.85, 0.21 0.77 C0.25 0.7, 0.3 0.62, 0.36 0.55 C0.42 0.48, 0.48 0.42, 0.55 0.36 C0.62 0.3, 0.7 0.25, 0.77 0.21 C0.85 0.16, 0.93 0.12, 1.02 0.09 C1.1 0.06, 1.19 0.04, 1.28 0.02 C1.37 0.01, 1.46 0, 1.55 0 C1.64 0, 1.73 0.01, 1.82 0.02 C1.91 0.04, 1.99 0.06, 2.08 0.09 C2.16 0.12, 2.25 0.16, 2.32 0.21 C2.4 0.25, 2.48 0.3, 2.54 0.36 C2.61 0.42, 2.68 0.48, 2.74 0.55 C2.79 0.62, 2.85 0.7, 2.89 0.77 C2.94 0.85, 2.97 0.93, 3 1.02 C3.04 1.1, 3.06 1.19, 3.07 1.28 C3.09 1.37, 3.09 1.5, 3.1 1.55 C3.1 1.59, 3.1 1.5, 3.1 1.55" stroke="transparent" stroke-width="1" fill="none"></path></g><g stroke-linecap="round" transform="translate(54.54320193543026 271.8171216686098) rotate(0 1.5490046739578247 1.5490046739578247)"><path d="M3.1 1.55 C3.1 1.64, 3.09 1.73, 3.07 1.82 C3.06 1.91, 3.04 1.99, 3 2.08 C2.97 2.16, 2.94 2.25, 2.89 2.32 C2.85 2.4, 2.79 2.48, 2.74 2.54 C2.68 2.61, 2.61 2.68, 2.54 2.74 C2.48 2.79, 2.4 2.85, 2.32 2.89 C2.25 2.94, 2.16 2.97, 2.08 3 C1.99 3.04, 1.91 3.06, 1.82 3.07 C1.73 3.09, 1.64 3.1, 1.55 3.1 C1.46 3.1, 1.37 3.09, 1.28 3.07 C1.19 3.06, 1.1 3.04, 1.02 3 C0.93 2.97, 0.85 2.94, 0.77 2.89 C0.7 2.85, 0.62 2.79, 0.55 2.74 C0.48 2.68, 0.42 2.61, 0.36 2.54 C0.3 2.48, 0.25 2.4, 0.21 2.32 C0.16 2.25, 0.12 2.16, 0.09 2.08 C0.06 1.99, 0.04 1.91, 0.02 1.82 C0.01 1.73, 0 1.64, 0 1.55 C0 1.46, 0.01 1.37, 0.02 1.28 C0.04 1.19, 0.06 1.1, 0.09 1.02 C0.12 0.93, 0.16 0.85, 0.21 0.77 C0.25 0.7, 0.3 0.62, 0.36 0.55 C0.42 0.48, 0.48 0.42, 0.55 0.36 C0.62 0.3, 0.7 0.25, 0.77 0.21 C0.85 0.16, 0.93 0.12, 1.02 0.09 C1.1 0.06, 1.19 0.04, 1.28 0.02 C1.37 0.01, 1.46 0, 1.55 0 C1.64 0, 1.73 0.01, 1.82 0.02 C1.91 0.04, 1.99 0.06, 2.08 0.09 C2.16 0.12, 2.25 0.16, 2.32 0.21 C2.4 0.25, 2.48 0.3, 2.54 0.36 C2.61 0.42, 2.68 0.48, 2.74 0.55 C2.79 0.62, 2.85 0.7, 2.89 0.77 C2.94 0.85, 2.97 0.93, 3 1.02 C3.04 1.1, 3.06 1.19, 3.07 1.28 C3.09 1.37, 3.09 1.5, 3.1 1.55 C3.1 1.59, 3.1 1.5, 3.1 1.55" stroke="none" stroke-width="0" fill="#aecbfa"></path><path d="M3.1 1.55 C3.1 1.64, 3.09 1.73, 3.07 1.82 C3.06 1.91, 3.04 1.99, 3 2.08 C2.97 2.16, 2.94 2.25, 2.89 2.32 C2.85 2.4, 2.79 2.48, 2.74 2.54 C2.68 2.61, 2.61 2.68, 2.54 2.74 C2.48 2.79, 2.4 2.85, 2.32 2.89 C2.25 2.94, 2.16 2.97, 2.08 3 C1.99 3.04, 1.91 3.06, 1.82 3.07 C1.73 3.09, 1.64 3.1, 1.55 3.1 C1.46 3.1, 1.37 3.09, 1.28 3.07 C1.19 3.06, 1.1 3.04, 1.02 3 C0.93 2.97, 0.85 2.94, 0.77 2.89 C0.7 2.85, 0.62 2.79, 0.55 2.74 C0.48 2.68, 0.42 2.61, 0.36 2.54 C0.3 2.48, 0.25 2.4, 0.21 2.32 C0.16 2.25, 0.12 2.16, 0.09 2.08 C0.06 1.99, 0.04 1.91, 0.02 1.82 C0.01 1.73, 0 1.64, 0 1.55 C0 1.46, 0.01 1.37, 0.02 1.28 C0.04 1.19, 0.06 1.1, 0.09 1.02 C0.12 0.93, 0.16 0.85, 0.21 0.77 C0.25 0.7, 0.3 0.62, 0.36 0.55 C0.42 0.48, 0.48 0.42, 0.55 0.36 C0.62 0.3, 0.7 0.25, 0.77 0.21 C0.85 0.16, 0.93 0.12, 1.02 0.09 C1.1 0.06, 1.19 0.04, 1.28 0.02 C1.37 0.01, 1.46 0, 1.55 0 C1.64 0, 1.73 0.01, 1.82 0.02 C1.91 0.04, 1.99 0.06, 2.08 0.09 C2.16 0.12, 2.25 0.16, 2.32 0.21 C2.4 0.25, 2.48 0.3, 2.54 0.36 C2.61 0.42, 2.68 0.48, 2.74 0.55 C2.79 0.62, 2.85 0.7, 2.89 0.77 C2.94 0.85, 2.97 0.93, 3 1.02 C3.04 1.1, 3.06 1.19, 3.07 1.28 C3.09 1.37, 3.09 1.5, 3.1 1.55 C3.1 1.59, 3.1 1.5, 3.1 1.55" stroke="transparent" stroke-width="1" fill="none"></path></g><g stroke-linecap="round" transform="translate(60.71241999878475 271.8171216686098) rotate(0 1.5490046739578247 1.5490046739578247)"><path d="M3.1 1.55 C3.1 1.64, 3.09 1.73, 3.07 1.82 C3.06 1.91, 3.04 1.99, 3 2.08 C2.97 2.16, 2.94 2.25, 2.89 2.32 C2.85 2.4, 2.79 2.48, 2.74 2.54 C2.68 2.61, 2.61 2.68, 2.54 2.74 C2.48 2.79, 2.4 2.85, 2.32 2.89 C2.25 2.94, 2.16 2.97, 2.08 3 C1.99 3.04, 1.91 3.06, 1.82 3.07 C1.73 3.09, 1.64 3.1, 1.55 3.1 C1.46 3.1, 1.37 3.09, 1.28 3.07 C1.19 3.06, 1.1 3.04, 1.02 3 C0.93 2.97, 0.85 2.94, 0.77 2.89 C0.7 2.85, 0.62 2.79, 0.55 2.74 C0.48 2.68, 0.42 2.61, 0.36 2.54 C0.3 2.48, 0.25 2.4, 0.21 2.32 C0.16 2.25, 0.12 2.16, 0.09 2.08 C0.06 1.99, 0.04 1.91, 0.02 1.82 C0.01 1.73, 0 1.64, 0 1.55 C0 1.46, 0.01 1.37, 0.02 1.28 C0.04 1.19, 0.06 1.1, 0.09 1.02 C0.12 0.93, 0.16 0.85, 0.21 0.77 C0.25 0.7, 0.3 0.62, 0.36 0.55 C0.42 0.48, 0.48 0.42, 0.55 0.36 C0.62 0.3, 0.7 0.25, 0.77 0.21 C0.85 0.16, 0.93 0.12, 1.02 0.09 C1.1 0.06, 1.19 0.04, 1.28 0.02 C1.37 0.01, 1.46 0, 1.55 0 C1.64 0, 1.73 0.01, 1.82 0.02 C1.91 0.04, 1.99 0.06, 2.08 0.09 C2.16 0.12, 2.25 0.16, 2.32 0.21 C2.4 0.25, 2.48 0.3, 2.54 0.36 C2.61 0.42, 2.68 0.48, 2.74 0.55 C2.79 0.62, 2.85 0.7, 2.89 0.77 C2.94 0.85, 2.97 0.93, 3 1.02 C3.04 1.1, 3.06 1.19, 3.07 1.28 C3.09 1.37, 3.09 1.5, 3.1 1.55 C3.1 1.59, 3.1 1.5, 3.1 1.55" stroke="none" stroke-width="0" fill="#aecbfa"></path><path d="M3.1 1.55 C3.1 1.64, 3.09 1.73, 3.07 1.82 C3.06 1.91, 3.04 1.99, 3 2.08 C2.97 2.16, 2.94 2.25, 2.89 2.32 C2.85 2.4, 2.79 2.48, 2.74 2.54 C2.68 2.61, 2.61 2.68, 2.54 2.74 C2.48 2.79, 2.4 2.85, 2.32 2.89 C2.25 2.94, 2.16 2.97, 2.08 3 C1.99 3.04, 1.91 3.06, 1.82 3.07 C1.73 3.09, 1.64 3.1, 1.55 3.1 C1.46 3.1, 1.37 3.09, 1.28 3.07 C1.19 3.06, 1.1 3.04, 1.02 3 C0.93 2.97, 0.85 2.94, 0.77 2.89 C0.7 2.85, 0.62 2.79, 0.55 2.74 C0.48 2.68, 0.42 2.61, 0.36 2.54 C0.3 2.48, 0.25 2.4, 0.21 2.32 C0.16 2.25, 0.12 2.16, 0.09 2.08 C0.06 1.99, 0.04 1.91, 0.02 1.82 C0.01 1.73, 0 1.64, 0 1.55 C0 1.46, 0.01 1.37, 0.02 1.28 C0.04 1.19, 0.06 1.1, 0.09 1.02 C0.12 0.93, 0.16 0.85, 0.21 0.77 C0.25 0.7, 0.3 0.62, 0.36 0.55 C0.42 0.48, 0.48 0.42, 0.55 0.36 C0.62 0.3, 0.7 0.25, 0.77 0.21 C0.85 0.16, 0.93 0.12, 1.02 0.09 C1.1 0.06, 1.19 0.04, 1.28 0.02 C1.37 0.01, 1.46 0, 1.55 0 C1.64 0, 1.73 0.01, 1.82 0.02 C1.91 0.04, 1.99 0.06, 2.08 0.09 C2.16 0.12, 2.25 0.16, 2.32 0.21 C2.4 0.25, 2.48 0.3, 2.54 0.36 C2.61 0.42, 2.68 0.48, 2.74 0.55 C2.79 0.62, 2.85 0.7, 2.89 0.77 C2.94 0.85, 2.97 0.93, 3 1.02 C3.04 1.1, 3.06 1.19, 3.07 1.28 C3.09 1.37, 3.09 1.5, 3.1 1.55 C3.1 1.59, 3.1 1.5, 3.1 1.55" stroke="transparent" stroke-width="1" fill="none"></path></g><g stroke-linecap="round" transform="translate(30.43819690552334 376.04493041749504) rotate(0 88.5 39)"><path d="M19.5 0 L157.5 0 L166.03 1.22 L172.13 4.88 L174.26 7.62 L176.7 14.93 L177 58.5 L175.78 67.03 L174.26 70.38 L169.38 75.26 L166.03 76.78 L157.5 78 L19.5 78 L10.97 76.78 L4.88 73.13 L2.74 70.38 L0.3 63.07 L0.3 14.93 L1.22 10.97 L4.88 4.88 L10.97 1.22 L19.5 0" stroke="none" stroke-width="0" fill="#FFF"></path><path d="M19.5 0 M19.5 0 C60.99 0, 102.49 0, 157.5 0 M19.5 0 C62.45 0, 105.39 0, 157.5 0 M157.5 0 C170.5 0, 177 6.5, 177 19.5 M157.5 0 C170.5 0, 177 6.5, 177 19.5 M177 19.5 C177 30.47, 177 41.43, 177 58.5 M177 19.5 C177 31.01, 177 42.53, 177 58.5 M177 58.5 C177 71.5, 170.5 78, 157.5 78 M177 58.5 C177 71.5, 170.5 78, 157.5 78 M157.5 78 C116.59 78, 75.68 78, 19.5 78 M157.5 78 C127.89 78, 98.27 78, 19.5 78 M19.5 78 C6.5 78, 0 71.5, 0 58.5 M19.5 78 C6.5 78, 0 71.5, 0 58.5 M0 58.5 C0 45.23, 0 31.96, 0 19.5 M0 58.5 C0 44.93, 0 31.37, 0 19.5 M0 19.5 C0 6.5, 6.5 0, 19.5 0 M0 19.5 C0 6.5, 6.5 0, 19.5 0" stroke="#4285f4" stroke-width="2" fill="none"></path></g><g transform="translate(90.43819690552334 391.04493041749504) rotate(0 33.5 6.5)"><text x="0" y="10" font-family="Helvetica, Segoe UI Emoji" font-size="12px" fill="#B5B9BF" text-anchor="start" style="white-space: pre;" direction="ltr">PostgreSQL</text></g><g transform="translate(90.43819690552334 407.04493041749504) rotate(0 27 8)"><text x="0" y="12" font-family="Helvetica, Segoe UI Emoji" font-size="12px" fill="#000000" text-anchor="start" style="white-space: pre;" direction="ltr">Cloud SQL</text></g><g stroke-linecap="round"><g transform="translate(52.24861408081631 412.76992984529045) rotate(0 5.344791412353516 5.0385422706604)" fill-rule="evenodd"><path d="M0 0 L0 4.39 L10.69 10.08 L10.69 5.69 L0 0 L0 0" stroke="none" stroke-width="0" fill="#aecbfa" fill-rule="evenodd"></path><path d="M0 0 C0 1.28, 0 2.56, 0 4.39 M0 0 C0 1.37, 0 2.74, 0 4.39 M0 4.39 C3.79 6.4, 7.58 8.42, 10.69 10.08 M0 4.39 C2.41 5.67, 4.82 6.95, 10.69 10.08 M10.69 10.08 C10.69 8.86, 10.69 7.64, 10.69 5.69 M10.69 10.08 C10.69 9.01, 10.69 7.94, 10.69 5.69 M10.69 5.69 C7.15 3.8, 3.6 1.92, 0 0 M10.69 5.69 C6.9 3.67, 3.12 1.66, 0 0 M0 0 C0 0, 0 0, 0 0 M0 0 C0 0, 0 0, 0 0 M0 0 C0 0, 0 0, 0 0 M0 0 C0 0, 0 0, 0 0" stroke="#00000000" stroke-width="1" fill="none"></path></g></g><mask></mask><g stroke-linecap="round"><g transform="translate(52.24861408081631 419.55118079896477) rotate(0 5.344791412353516 5.038542747497559)" fill-rule="evenodd"><path d="M0 0 L0 4.39 L10.69 10.08 L10.69 5.69 L0 0 L0 0" stroke="none" stroke-width="0" fill="#aecbfa" fill-rule="evenodd"></path><path d="M0 0 C0 1.28, 0 2.56, 0 4.39 M0 0 C0 1.03, 0 2.05, 0 4.39 M0 4.39 C3.99 6.51, 7.97 8.63, 10.69 10.08 M0 4.39 C2.63 5.79, 5.27 7.19, 10.69 10.08 M10.69 10.08 C10.69 8.78, 10.69 7.48, 10.69 5.69 M10.69 10.08 C10.69 8.32, 10.69 6.57, 10.69 5.69 M10.69 5.69 C8.06 4.29, 5.43 2.89, 0 0 M10.69 5.69 C7.84 4.17, 4.98 2.65, 0 0 M0 0 C0 0, 0 0, 0 0 M0 0 C0 0, 0 0, 0 0 M0 0 C0 0, 0 0, 0 0 M0 0 C0 0, 0 0, 0 0" stroke="#00000000" stroke-width="1" fill="none"></path></g></g><mask></mask><g stroke-linecap="round"><g transform="translate(62.93819690552334 422.84701438661125) rotate(0 5.344792366027832 -5.0385422706604)" fill-rule="evenodd"><path d="M0 0 L10.69 -5.69 L10.69 -10.08 L0 -4.39 L0 0 L0 0" stroke="none" stroke-width="0" fill="#669df6" fill-rule="evenodd"></path><path d="M0 0 C3.85 -2.05, 7.7 -4.1, 10.69 -5.69 M0 0 C2.8 -1.49, 5.6 -2.98, 10.69 -5.69 M10.69 -5.69 C10.69 -6.59, 10.69 -7.49, 10.69 -10.08 M10.69 -5.69 C10.69 -7.19, 10.69 -8.7, 10.69 -10.08 M10.69 -10.08 C7 -8.11, 3.3 -6.15, 0 -4.39 M10.69 -10.08 C7.95 -8.62, 5.2 -7.16, 0 -4.39 M0 -4.39 C0 -3.16, 0 -1.93, 0 0 M0 -4.39 C0 -3, 0 -1.62, 0 0 M0 0 C0 0, 0 0, 0 0 M0 0 C0 0, 0 0, 0 0 M0 0 C0 0, 0 0, 0 0 M0 0 C0 0, 0 0, 0 0" stroke="#00000000" stroke-width="1" fill="none"></path></g></g><mask></mask><g stroke-linecap="round"><g transform="translate(62.93819690552334 429.6282662939599) rotate(0 5.344792366027832 -5.038542747497559)" fill-rule="evenodd"><path d="M0 0 L10.69 -5.69 L10.69 -10.08 L0 -4.39 L0 0 L0 0" stroke="none" stroke-width="0" fill="#669df6" fill-rule="evenodd"></path><path d="M0 0 C2.98 -1.59, 5.96 -3.17, 10.69 -5.69 M0 0 C3 -1.6, 6.01 -3.2, 10.69 -5.69 M10.69 -5.69 C10.69 -7.38, 10.69 -9.06, 10.69 -10.08 M10.69 -5.69 C10.69 -7.06, 10.69 -8.44, 10.69 -10.08 M10.69 -10.08 C7.36 -8.31, 4.04 -6.54, 0 -4.39 M10.69 -10.08 C7.51 -8.38, 4.33 -6.69, 0 -4.39 M0 -4.39 C0 -3.09, 0 -1.8, 0 0 M0 -4.39 C0 -3.39, 0 -2.39, 0 0 M0 0 C0 0, 0 0, 0 0 M0 0 C0 0, 0 0, 0 0 M0 0 C0 0, 0 0, 0 0 M0 0 C0 0, 0 0, 0 0" stroke="#00000000" stroke-width="1" fill="none"></path></g></g><mask></mask><g stroke-linecap="round"><g transform="translate(73.627781637579 410.5386809896996) rotate(0 -5.344792366027832 -5.038541913032532)" fill-rule="evenodd"><path d="M0 0 L0 -4.39 L-10.69 -10.08 L-10.69 -5.69 L0 0 L0 0" stroke="none" stroke-width="0" fill="#4285f4" fill-rule="evenodd"></path><path d="M0 0 C0 -1.43, 0 -2.86, 0 -4.39 M0 0 C0 -0.93, 0 -1.87, 0 -4.39 M0 -4.39 C-3.89 -6.46, -7.79 -8.53, -10.69 -10.08 M0 -4.39 C-3.05 -6.01, -6.09 -7.63, -10.69 -10.08 M-10.69 -10.08 C-10.69 -9.07, -10.69 -8.07, -10.69 -5.69 M-10.69 -10.08 C-10.69 -8.86, -10.69 -7.64, -10.69 -5.69 M-10.69 -5.69 C-6.81 -3.63, -2.94 -1.56, 0 0 M-10.69 -5.69 C-7.9 -4.2, -5.11 -2.72, 0 0 M0 0 C0 0, 0 0, 0 0 M0 0 C0 0, 0 0, 0 0 M0 0 C0 0, 0 0, 0 0 M0 0 C0 0, 0 0, 0 0" stroke="#00000000" stroke-width="1" fill="none"></path></g></g><mask></mask><g stroke-linecap="round"><g transform="translate(62.93819690552334 400.46159716363456) rotate(0 -5.344791412353516 5.038541913032532)" fill-rule="evenodd"><path d="M0 0 L-10.69 5.69 L-10.69 10.08 L0 4.39 L0 0 L0 0" stroke="none" stroke-width="0" fill="#669df6" fill-rule="evenodd"></path><path d="M0 0 C-3.43 1.82, -6.86 3.65, -10.69 5.69 M0 0 C-2.32 1.23, -4.63 2.46, -10.69 5.69 M-10.69 5.69 C-10.69 6.63, -10.69 7.56, -10.69 10.08 M-10.69 5.69 C-10.69 6.71, -10.69 7.73, -10.69 10.08 M-10.69 10.08 C-8.02 8.65, -5.34 7.23, 0 4.39 M-10.69 10.08 C-7.62 8.44, -4.54 6.81, 0 4.39 M0 4.39 C0 3.28, 0 2.17, 0 0 M0 4.39 C0 3.01, 0 1.64, 0 0 M0 0 C0 0, 0 0, 0 0 M0 0 C0 0, 0 0, 0 0 M0 0 C0 0, 0 0, 0 0 M0 0 C0 0, 0 0, 0 0" stroke="#00000000" stroke-width="1" fill="none"></path></g></g><mask></mask><g stroke-linecap="round"><g transform="translate(52.24861408081631 406.105347592788) rotate(0 5.344791412353516 5.045833587646484)" fill-rule="evenodd"><path d="M0 0 L0 4.4 L10.69 10.09 L10.69 5.69 L0 0 L0 0" stroke="none" stroke-width="0" fill="#aecbfa" fill-rule="evenodd"></path><path d="M0 0 C0 1.26, 0 2.53, 0 4.4 M0 0 C0 0.89, 0 1.78, 0 4.4 M0 4.4 C2.72 5.85, 5.44 7.3, 10.69 10.09 M0 4.4 C3.52 6.28, 7.05 8.15, 10.69 10.09 M10.69 10.09 C10.69 9.12, 10.69 8.14, 10.69 5.69 M10.69 10.09 C10.69 8.65, 10.69 7.21, 10.69 5.69 M10.69 5.69 C6.53 3.48, 2.38 1.26, 0 0 M10.69 5.69 C6.85 3.64, 3 1.6, 0 0 M0 0 C0 0, 0 0, 0 0 M0 0 C0 0, 0 0, 0 0 M0 0 C0 0, 0 0, 0 0 M0 0 C0 0, 0 0, 0 0" stroke="#00000000" stroke-width="1" fill="none"></path></g></g><mask></mask><g stroke-linecap="round"><g transform="translate(62.93819690552334 416.197014768081) rotate(0 5.344792366027832 -5.045833587646484)" fill-rule="evenodd"><path d="M0 0 L10.69 -5.69 L10.69 -10.09 L0 -4.4 L0 0 L0 0" stroke="none" stroke-width="0" fill="#669df6" fill-rule="evenodd"></path><path d="M0 0 C2.5 -1.33, 5 -2.66, 10.69 -5.69 M0 0 C2.9 -1.54, 5.8 -3.09, 10.69 -5.69 M10.69 -5.69 C10.69 -6.88, 10.69 -8.07, 10.69 -10.09 M10.69 -5.69 C10.69 -7.01, 10.69 -8.34, 10.69 -10.09 M10.69 -10.09 C7.27 -8.27, 3.85 -6.45, 0 -4.4 M10.69 -10.09 C7.68 -8.49, 4.68 -6.89, 0 -4.4 M0 -4.4 C0 -3.41, 0 -2.41, 0 0 M0 -4.4 C0 -3.1, 0 -1.79, 0 0 M0 0 C0 0, 0 0, 0 0 M0 0 C0 0, 0 0, 0 0 M0 0 C0 0, 0 0, 0 0 M0 0 C0 0, 0 0, 0 0" stroke="#00000000" stroke-width="1" fill="none"></path></g></g><mask></mask><g stroke-linecap="round" transform="translate(21.37452675252814 108.66666090414037) rotate(0 88.5 39)"><path d="M19.5 0 L157.5 0 L166.03 1.22 L172.13 4.88 L174.26 7.62 L176.7 14.93 L177 58.5 L175.78 67.03 L174.26 70.38 L169.38 75.26 L166.03 76.78 L157.5 78 L19.5 78 L10.97 76.78 L4.88 73.13 L2.74 70.38 L0.3 63.07 L0.3 14.93 L1.22 10.97 L4.88 4.88 L10.97 1.22 L19.5 0" stroke="none" stroke-width="0" fill="#FFF"></path><path d="M19.5 0 M19.5 0 C51.23 0, 82.96 0, 157.5 0 M19.5 0 C58.49 0, 97.49 0, 157.5 0 M157.5 0 C170.5 0, 177 6.5, 177 19.5 M157.5 0 C170.5 0, 177 6.5, 177 19.5 M177 19.5 C177 27.93, 177 36.35, 177 58.5 M177 19.5 C177 30.67, 177 41.85, 177 58.5 M177 58.5 C177 71.5, 170.5 78, 157.5 78 M177 58.5 C177 71.5, 170.5 78, 157.5 78 M157.5 78 C127.52 78, 97.54 78, 19.5 78 M157.5 78 C114.73 78, 71.96 78, 19.5 78 M19.5 78 C6.5 78, 0 71.5, 0 58.5 M19.5 78 C6.5 78, 0 71.5, 0 58.5 M0 58.5 C0 46.59, 0 34.67, 0 19.5 M0 58.5 C0 45.16, 0 31.81, 0 19.5 M0 19.5 C0 6.5, 6.5 0, 19.5 0 M0 19.5 C0 6.5, 6.5 0, 19.5 0" stroke="#4285f4" stroke-width="2" fill="none"></path></g><g transform="translate(81.37452675252814 123.66666090414037) rotate(0 20 6.5)"><text x="0" y="10" font-family="Helvetica, Segoe UI Emoji" font-size="12px" fill="#B5B9BF" text-anchor="start" style="white-space: pre;" direction="ltr">Vue.JS</text></g><g transform="translate(81.37452675252814 139.66666090414037) rotate(0 39 8)"><text x="0" y="12" font-family="Helvetica, Segoe UI Emoji" font-size="12px" fill="#000000" text-anchor="start" style="white-space: pre;" direction="ltr">Cloud Storage</text></g><g transform="translate(81.37452675252814 155.66666090414037) rotate(0 29.5 6.5)"><text x="0" y="10" font-family="Helvetica, Segoe UI Emoji" font-size="12px" fill="#B5B9BF" text-anchor="start" style="white-space: pre;" direction="ltr">TypeScript</text></g><g stroke-linecap="round" transform="translate(39.29119349866767 135.99999439641942) rotate(0 14.583333969116211 5.1041669845581055)"><path d="M0 0 L29.17 0 L29.17 10.21 L0 10.21" stroke="none" stroke-width="0" fill="#aecbfa"></path><path d="M0 0 C7.66 0, 15.32 0, 29.17 0 M0 0 C5.89 0, 11.77 0, 29.17 0 M29.17 0 C29.17 2.59, 29.17 5.18, 29.17 10.21 M29.17 0 C29.17 2.37, 29.17 4.75, 29.17 10.21 M29.17 10.21 C20.81 10.21, 12.46 10.21, 0 10.21 M29.17 10.21 C21.09 10.21, 13.02 10.21, 0 10.21 M0 10.21 C0 8.06, 0 5.92, 0 0 M0 10.21 C0 7.42, 0 4.62, 0 0" stroke="transparent" stroke-width="1" fill="none"></path></g><g stroke-linecap="round" transform="translate(65.54119469076056 135.99999439641942) rotate(0 1.4583333730697632 5.1041669845581055)"><path d="M0 0 L2.92 0 L2.92 10.21 L0 10.21" stroke="none" stroke-width="0" fill="#669df6"></path><path d="M0 0 C0.66 0, 1.31 0, 2.92 0 M0 0 C0.78 0, 1.57 0, 2.92 0 M2.92 0 C2.92 2.34, 2.92 4.69, 2.92 10.21 M2.92 0 C2.92 3.2, 2.92 6.4, 2.92 10.21 M2.92 10.21 C2.04 10.21, 1.17 10.21, 0 10.21 M2.92 10.21 C1.96 10.21, 1.01 10.21, 0 10.21 M0 10.21 C0 7.52, 0 4.84, 0 0 M0 10.21 C0 6.5, 0 2.79, 0 0" stroke="transparent" stroke-width="1" fill="none"></path></g><g stroke-linecap="round"><g transform="translate(68.45786262899298 135.99999439641942) rotate(0 -1.458333969116211 5.104167222976685)" fill-rule="evenodd"><path d="M0 0 L-2.92 0 L-2.92 10.21 L0 0 L0 0" stroke="none" stroke-width="0" fill="#4285f4" fill-rule="evenodd"></path><path d="M0 0 C-1.07 0, -2.13 0, -2.92 0 M0 0 C-0.94 0, -1.88 0, -2.92 0 M-2.92 0 C-2.92 2.36, -2.92 4.71, -2.92 10.21 M-2.92 0 C-2.92 2.2, -2.92 4.39, -2.92 10.21 M-2.92 10.21 C-1.86 6.51, -0.81 2.82, 0 0 M-2.92 10.21 C-1.81 6.33, -0.7 2.45, 0 0 M0 0 C0 0, 0 0, 0 0 M0 0 C0 0, 0 0, 0 0 M0 0 C0 0, 0 0, 0 0 M0 0 C0 0, 0 0, 0 0" stroke="#00000000" stroke-width="1" fill="none"></path></g></g><mask></mask><g stroke-linecap="round" transform="translate(39.29119349866767 135.99999439641942) rotate(0 1.4583333730697632 5.1041669845581055)"><path d="M0 0 L2.92 0 L2.92 10.21 L0 10.21" stroke="none" stroke-width="0" fill="#669df6"></path><path d="M0 0 C1.13 0, 2.26 0, 2.92 0 M0 0 C1.1 0, 2.19 0, 2.92 0 M2.92 0 C2.92 2.75, 2.92 5.5, 2.92 10.21 M2.92 0 C2.92 3.8, 2.92 7.6, 2.92 10.21 M2.92 10.21 C2.09 10.21, 1.27 10.21, 0 10.21 M2.92 10.21 C2.05 10.21, 1.19 10.21, 0 10.21 M0 10.21 C0 7.28, 0 4.36, 0 0 M0 10.21 C0 7.46, 0 4.71, 0 0" stroke="transparent" stroke-width="1" fill="none"></path></g><g stroke-linecap="round" transform="translate(45.12452675252814 140.37499487325658) rotate(0 4.375 0.7291666865348816)"><path d="M0 0 L8.75 0 L8.75 1.46 L0 1.46" stroke="none" stroke-width="0" fill="#fff"></path><path d="M0 0 C1.98 0, 3.96 0, 8.75 0 M0 0 C2.87 0, 5.74 0, 8.75 0 M8.75 0 C8.75 0.31, 8.75 0.63, 8.75 1.46 M8.75 0 C8.75 0.35, 8.75 0.7, 8.75 1.46 M8.75 1.46 C5.46 1.46, 2.16 1.46, 0 1.46 M8.75 1.46 C6.82 1.46, 4.89 1.46, 0 1.46 M0 1.46 C0 1.13, 0 0.81, 0 0 M0 1.46 C0 0.95, 0 0.45, 0 0" stroke="transparent" stroke-width="1" fill="none"></path></g><g stroke-linecap="round" transform="translate(58.24952675252814 138.91666090414037) rotate(0 2.1875 2.1875)"><path d="M1.09 0 L4.1 0.27 L4.1 4.1 L0.27 4.1 L0 1.09 L1.09 0" stroke="none" stroke-width="0" fill="#fff"></path><path d="M1.09 0 M1.09 0 C1.92 0, 2.75 0, 3.28 0 M1.09 0 C1.6 0, 2.1 0, 3.28 0 M3.28 0 C4.01 0, 4.38 0.36, 4.38 1.09 M3.28 0 C4.01 0, 4.38 0.36, 4.38 1.09 M4.38 1.09 C4.38 1.8, 4.38 2.5, 4.38 3.28 M4.38 1.09 C4.38 1.89, 4.38 2.68, 4.38 3.28 M4.38 3.28 C4.38 4.01, 4.01 4.38, 3.28 4.38 M4.38 3.28 C4.38 4.01, 4.01 4.38, 3.28 4.38 M3.28 4.38 C2.8 4.38, 2.32 4.38, 1.09 4.38 M3.28 4.38 C2.46 4.38, 1.65 4.38, 1.09 4.38 M1.09 4.38 C0.36 4.38, 0 4.01, 0 3.28 M1.09 4.38 C0.36 4.38, 0 4.01, 0 3.28 M0 3.28 C0 2.44, 0 1.6, 0 1.09 M0 3.28 C0 2.5, 0 1.71, 0 1.09 M0 1.09 C0 0.36, 0.36 0, 1.09 0 M0 1.09 C0 0.36, 0.36 0, 1.09 0" stroke="transparent" stroke-width="1" fill="none"></path></g><g stroke-linecap="round" transform="translate(39.29119349866767 149.12499487325658) rotate(0 14.583333969116211 5.1041669845581055)"><path d="M0 0 L29.17 0 L29.17 10.21 L0 10.21" stroke="none" stroke-width="0" fill="#aecbfa"></path><path d="M0 0 C10.9 0, 21.79 0, 29.17 0 M0 0 C11.06 0, 22.11 0, 29.17 0 M29.17 0 C29.17 3.5, 29.17 7, 29.17 10.21 M29.17 0 C29.17 3.28, 29.17 6.56, 29.17 10.21 M29.17 10.21 C21.18 10.21, 13.2 10.21, 0 10.21 M29.17 10.21 C22.78 10.21, 16.4 10.21, 0 10.21 M0 10.21 C0 8.03, 0 5.86, 0 0 M0 10.21 C0 6.29, 0 2.36, 0 0" stroke="transparent" stroke-width="1" fill="none"></path></g><g stroke-linecap="round" transform="translate(65.54119469076056 149.12499487325658) rotate(0 1.4583333730697632 5.1041669845581055)"><path d="M0 0 L2.92 0 L2.92 10.21 L0 10.21" stroke="none" stroke-width="0" fill="#669df6"></path><path d="M0 0 C0.92 0, 1.84 0, 2.92 0 M0 0 C0.85 0, 1.7 0, 2.92 0 M2.92 0 C2.92 2.85, 2.92 5.71, 2.92 10.21 M2.92 0 C2.92 2.35, 2.92 4.69, 2.92 10.21 M2.92 10.21 C2.13 10.21, 1.35 10.21, 0 10.21 M2.92 10.21 C2.29 10.21, 1.66 10.21, 0 10.21 M0 10.21 C0 6.63, 0 3.05, 0 0 M0 10.21 C0 7.99, 0 5.77, 0 0" stroke="transparent" stroke-width="1" fill="none"></path></g><g stroke-linecap="round"><g transform="translate(68.45786262899298 149.12499487325658) rotate(0 -1.458333969116211 5.1041669845581055)" fill-rule="evenodd"><path d="M0 0 L-2.92 0 L-2.92 10.21 L0 0 L0 0" stroke="none" stroke-width="0" fill="#4285f4" fill-rule="evenodd"></path><path d="M0 0 C-0.7 0, -1.41 0, -2.92 0 M0 0 C-0.92 0, -1.85 0, -2.92 0 M-2.92 0 C-2.92 2.67, -2.92 5.34, -2.92 10.21 M-2.92 0 C-2.92 4.06, -2.92 8.13, -2.92 10.21 M-2.92 10.21 C-2.27 7.95, -1.63 5.69, 0 0 M-2.92 10.21 C-2.18 7.63, -1.44 5.05, 0 0 M0 0 C0 0, 0 0, 0 0 M0 0 C0 0, 0 0, 0 0 M0 0 C0 0, 0 0, 0 0 M0 0 C0 0, 0 0, 0 0" stroke="#00000000" stroke-width="1" fill="none"></path></g></g><mask></mask><g stroke-linecap="round" transform="translate(39.29119349866767 149.12499487325658) rotate(0 1.4583333730697632 5.1041669845581055)"><path d="M0 0 L2.92 0 L2.92 10.21 L0 10.21" stroke="none" stroke-width="0" fill="#669df6"></path><path d="M0 0 C0.75 0, 1.5 0, 2.92 0 M0 0 C0.69 0, 1.38 0, 2.92 0 M2.92 0 C2.92 2.75, 2.92 5.51, 2.92 10.21 M2.92 0 C2.92 3.09, 2.92 6.17, 2.92 10.21 M2.92 10.21 C1.96 10.21, 1 10.21, 0 10.21 M2.92 10.21 C2.09 10.21, 1.27 10.21, 0 10.21 M0 10.21 C0 7.35, 0 4.48, 0 0 M0 10.21 C0 6.96, 0 3.71, 0 0" stroke="transparent" stroke-width="1" fill="none"></path></g><g stroke-linecap="round" transform="translate(45.12452675252814 153.49999487325658) rotate(0 4.375 0.7291666865348816)"><path d="M0 0 L8.75 0 L8.75 1.46 L0 1.46" stroke="none" stroke-width="0" fill="#fff"></path><path d="M0 0 C3.47 0, 6.94 0, 8.75 0 M0 0 C3.32 0, 6.65 0, 8.75 0 M8.75 0 C8.75 0.39, 8.75 0.77, 8.75 1.46 M8.75 0 C8.75 0.5, 8.75 1.01, 8.75 1.46 M8.75 1.46 C6.66 1.46, 4.56 1.46, 0 1.46 M8.75 1.46 C5.42 1.46, 2.1 1.46, 0 1.46 M0 1.46 C0 0.97, 0 0.47, 0 0 M0 1.46 C0 0.99, 0 0.51, 0 0" stroke="transparent" stroke-width="1" fill="none"></path></g><g stroke-linecap="round" transform="translate(58.24952675252814 152.04166090414037) rotate(0 2.1875 2.1875)"><path d="M1.09 0 L4.1 0.27 L4.1 4.1 L0.27 4.1 L0 1.09 L1.09 0" stroke="none" stroke-width="0" fill="#fff"></path><path d="M1.09 0 M1.09 0 C1.6 0, 2.1 0, 3.28 0 M1.09 0 C1.67 0, 2.24 0, 3.28 0 M3.28 0 C4.01 0, 4.38 0.36, 4.38 1.09 M3.28 0 C4.01 0, 4.38 0.36, 4.38 1.09 M4.38 1.09 C4.38 1.75, 4.38 2.4, 4.38 3.28 M4.38 1.09 C4.38 1.58, 4.38 2.06, 4.38 3.28 M4.38 3.28 C4.38 4.01, 4.01 4.38, 3.28 4.38 M4.38 3.28 C4.38 4.01, 4.01 4.38, 3.28 4.38 M3.28 4.38 C2.71 4.38, 2.13 4.38, 1.09 4.38 M3.28 4.38 C2.77 4.38, 2.26 4.38, 1.09 4.38 M1.09 4.38 C0.36 4.38, 0 4.01, 0 3.28 M1.09 4.38 C0.36 4.38, 0 4.01, 0 3.28 M0 3.28 C0 2.74, 0 2.21, 0 1.09 M0 3.28 C0 2.78, 0 2.28, 0 1.09 M0 1.09 C0 0.36, 0.36 0, 1.09 0 M0 1.09 C0 0.36, 0.36 0, 1.09 0" stroke="transparent" stroke-width="1" fill="none"></path></g><g stroke-linecap="round"><g transform="translate(121.20411444377214 189.5861353617426) rotate(0 0.34076587443706785 19.52947323543077)"><path d="M0.66 -0.43 C0.63 -0.43, -1.06 -7.64, -0.91 -0.57 C-0.75 6.5, 1.43 34.69, 1.6 41.98 M-0.45 -1.71 C-0.05 -1.49, 1.08 -6.74, 1.33 0.67 C1.58 8.08, 1.34 35.46, 1.08 42.73" stroke="#000000" stroke-width="1" fill="none"></path></g><g transform="translate(121.20411444377214 189.5861353617426) rotate(0 0.34076587443706785 19.52947323543077)"><path d="M-6.61 20.85 C-5.25 28.02, -4.41 30.41, 1.27 40.78 M-6.47 21.63 C-5.06 27.39, -1.95 31.66, 1.24 43.15" stroke="#000000" stroke-width="1" fill="none"></path></g><g transform="translate(121.20411444377214 189.5861353617426) rotate(0 0.34076587443706785 19.52947323543077)"><path d="M8.12 21.14 C5.91 28.33, 3.19 30.64, 1.27 40.78 M8.26 21.92 C6.32 27.73, 6.07 31.93, 1.24 43.15" stroke="#000000" stroke-width="1" fill="none"></path></g></g><mask></mask><g stroke-linecap="round"><g transform="translate(114.20973290690642 320.8127236580517) rotate(0 0.9590870695047329 20.377562464208324)"><path d="M-0.35 0.75 C-0.38 0.69, 0.57 -6.94, 0.63 0.03 C0.68 7, -0.12 35.49, -0.02 42.59 M1.67 0.1 C1.47 0.21, -0.09 -5.67, 0.01 1.59 C0.11 8.85, 2.02 36.68, 2.27 43.66" stroke="#000000" stroke-width="1" fill="none"></path></g><g transform="translate(114.20973290690642 320.8127236580517) rotate(0 0.9590870695047329 20.377562464208324)"><path d="M-4.92 24.89 C-2.97 29.2, -0.71 38.5, 1.51 42.63 M-5.34 23.58 C-3.19 31.85, -0.73 38.84, 2.65 43.27" stroke="#000000" stroke-width="1" fill="none"></path></g><g transform="translate(114.20973290690642 320.8127236580517) rotate(0 0.9590870695047329 20.377562464208324)"><path d="M9.79 24.1 C6.36 28.66, 3.24 38.25, 1.51 42.63 M9.37 22.79 C6.04 31.4, 3.02 38.69, 2.65 43.27" stroke="#000000" stroke-width="1" fill="none"></path></g></g><mask></mask></svg>